# xmcd CD database file
#
# Track frame offsets:
#	150
#	13850
#	29931
#	49940
#
# Disc length: 866 seconds
#
# Revision: 0
# Processed by: cddbd v1.5.1PL0 Copyright (c) Steve Scherf et al.
# Submitted via: Feurio! 1.68 - http://www.feurio.com
#
DISCID=35036004
DTITLE=Gitty Fisher - You are my rocki
DYEAR=1900
DGENRE=
TTITLE0=Your are my rock
TTITLE1=Hell or paradise
TTITLE2=Blame it on you
TTITLE3=Cadillac Groove
EXTD=
EXTT0=
EXTT1=
EXTT2=
EXTT3=
PLAYORDER=
